<svg xmlns="http://www.w3.org/2000/svg" id="comment" data-name="Layer 1" viewBox="0 0 48 48"><path fill="#4cb7d8" d="M31.87988,20.37A15.88857,15.88857,0,0,1,31.53,22.22,14.48876,14.48876,0,0,1,19.7,32.84,14.762,14.762,0,0,1,17.51,33a14.52015,14.52015,0,0,1-6.34985-1.46.8502.8502,0,0,0-.6001-.07l-3.97,1.1A1.90413,1.90413,0,0,1,4.23,30.34l.84009-3.99a.83315.83315,0,0,0-.12012-.6,14.49833,14.49833,0,1,1,26.92993-5.38Z"/><path fill="#44cdf2" d="M31.87988,20.37A15.88857,15.88857,0,0,1,31.53,22.22,13.99791,13.99791,0,0,1,8.12988,7.49a14.46905,14.46905,0,0,1,23.75,12.88Z"/><path fill="#f4ce2f" d="M43.59009,41.13a2.17981,2.17981,0,0,1,0,.88,2.0427,2.0427,0,0,1-2.53,1.5l-4.55-1.27a1.15733,1.15733,0,0,0-.79.09A16.344,16.344,0,0,1,28.49,44,16.06312,16.06312,0,0,1,26,43.81,16.45291,16.45291,0,0,1,12.12988,29.63,14.6189,14.6189,0,0,1,12.02,28.17,16.41488,16.41488,0,0,1,16.47,16.21a14.841,14.841,0,0,1,1.13989-1.1A16.495,16.495,0,0,1,42.78,35.76a1.12343,1.12343,0,0,0-.15015.79Z"/><path fill="#fcea49" d="M41.59009,39.13a2.17981,2.17981,0,0,1,0,.88,1.89735,1.89735,0,0,1-1.03,0l-4.55-1.27a1.15733,1.15733,0,0,0-.79.09,16.344,16.344,0,0,1-7.23,1.67,16.06312,16.06312,0,0,1-2.49-.19A16.457,16.457,0,0,1,12.02,28.17,16.41488,16.41488,0,0,1,16.47,16.21a14.841,14.841,0,0,1,1.13989-1.1,16.38591,16.38591,0,0,1,21.5-.19A16.37374,16.37374,0,0,1,40.78,33.76a1.12343,1.12343,0,0,0-.15015.79Z"/><path fill="#d0d0f7" d="M37.2 34a.5531.5531 0 01-.02.18A1.18692 1.18692 0 0136 35.2H28a1.18692 1.18692 0 01-1.17993-1.02.5531.5531 0 01-.02-.18 1.18707 1.18707 0 011.02-1.18A.552.552 0 0128 32.8h8a.552.552 0 01.17993.02A1.18707 1.18707 0 0137.2 34zM37.2 28a.5531.5531 0 01-.02.18A1.18692 1.18692 0 0136 29.2H21a1.18692 1.18692 0 01-1.17993-1.02.5531.5531 0 01-.02-.18 1.18707 1.18707 0 011.02-1.18A.552.552 0 0121 26.8H36a.552.552 0 01.17993.02A1.18707 1.18707 0 0137.2 28zM37.2 22a.5531.5531 0 01-.02.18A1.18692 1.18692 0 0136 23.2H21a1.18692 1.18692 0 01-1.17993-1.02.5531.5531 0 01-.02-.18 1.18707 1.18707 0 011.02-1.18A.552.552 0 0121 20.8H36a.552.552 0 01.17993.02A1.18707 1.18707 0 0137.2 22z"/><path fill="#fefefe" d="M37.2 34a.5531.5531 0 01-.02.18A.552.552 0 0137 34.2H29a1.18692 1.18692 0 01-1.17993-1.02.81911.81911 0 010-.36A.552.552 0 0128 32.8h8a.552.552 0 01.17993.02A1.18707 1.18707 0 0137.2 34zM37.2 28a.5531.5531 0 01-.02.18A.552.552 0 0137 28.2H22a1.18692 1.18692 0 01-1.17993-1.02.81911.81911 0 010-.36A.552.552 0 0121 26.8H36a.552.552 0 01.17993.02A1.18707 1.18707 0 0137.2 28zM37.2 22a.5531.5531 0 01-.02.18A.552.552 0 0137 22.2H22a1.18692 1.18692 0 01-1.17993-1.02.81911.81911 0 010-.36A.552.552 0 0121 20.8H36a.552.552 0 01.17993.02A1.18707 1.18707 0 0137.2 22z"/><path fill="#232323" d="M6.08252,32.63379a1.89874,1.89874,0,0,1-1.85059-2.292l.83936-3.98828a.88416.88416,0,0,0-.11865-.60547,14.36169,14.36169,0,0,1-1.85645-8.93262A14.51162,14.51162,0,0,1,27.875,8.36035a1,1,0,0,1-1.42969,1.39844A12.51141,12.51141,0,0,0,5.0835,17.043a12.37516,12.37516,0,0,0,1.60009,7.70312,2.89274,2.89274,0,0,1,.34668,2.01075l-.81836,3.88769,3.75977-1.09765c.02539-.00782.10059-.02344.126-.02833a2.78106,2.78106,0,0,1,1.938.22559,10.29935,10.29935,0,0,0,1.73047.67481,1.00259,1.00259,0,1,1-.65673,1.8916,12.43668,12.43668,0,0,1-1.96143-.77344.82538.82538,0,0,0-.59473-.07227c-.02343.00586-.09668.02149-.1206.02637l-3.834,1.07129A1.91761,1.91761,0,0,1,6.08252,32.63379Z"/><path fill="#232323" d="M28.49219,43.999a17.08105,17.08105,0,0,1-2.49512-.18457A16.503,16.503,0,0,1,29.5376,11.03223h0A16.63584,16.63584,0,0,1,44.89111,25.58691a16.41721,16.41721,0,0,1-2.11377,10.16895,1.12694,1.12694,0,0,0-.147.792l.96436,4.583a2.03349,2.03349,0,0,1-2.53321,2.37793l-4.55468-1.26465a1.11572,1.11572,0,0,0-.78809.09082A16.43372,16.43372,0,0,1,28.49219,43.999Zm.02-30.998A14.50134,14.50134,0,1,0,34.8418,40.53809a3.10143,3.10143,0,0,1,2.20117-.22071l4.55322,1.26367-.92285-4.62011a3.12212,3.12212,0,0,1,.374-2.208,14.43319,14.43319,0,0,0,1.85645-8.93945A14.61325,14.61325,0,0,0,29.41553,13.02832h0Q28.96216,13.0005,28.51221,13.001Z"/></svg>